<?xml version="1.0" encoding="UTF-8"?>
<svg width="26px" height="26px" viewBox="0 0 26 26" version="1.1" xmlns="http://www.w3.org/2000/svg" xmlns:xlink="http://www.w3.org/1999/xlink">
    <!-- Generator: Sketch 62 (91390) - https://sketch.com -->
    <title>instagram (3)</title>
    <desc>Created with Sketch.</desc>
    <g id="Page-1" stroke="none" stroke-width="1" fill="none" fill-rule="evenodd">
        <g id="Test-1" transform="translate(-162.000000, -2193.000000)" fill="#40382D" fill-rule="nonzero">
            <g id="Instagram" transform="translate(162.000000, 2121.000000)">
                <g id="Group-8" transform="translate(0.000000, 57.000000)">
                    <g id="instagram-(3)" transform="translate(0.000000, 15.000000)">
                        <path d="M18.1636503,0 L7.43640011,0 C3.33595005,0 0,3.33595005 0,7.43640011 L0,18.1636003 C0,22.2640503 3.33595005,25.6000004 7.43640011,25.6000004 L18.1636003,25.6000004 C22.2640503,25.6000004 25.6000004,22.2640503 25.6000004,18.1636503 L25.6000004,7.43640011 C25.6000004,3.33595005 22.2640503,0 18.1636503,0 Z M23.6000004,18.1636003 C23.6000004,21.1612503 21.1612503,23.6000004 18.1636503,23.6000004 L7.43640011,23.6000004 C4.43875007,23.6000004 2.00000003,21.1612503 2.00000003,18.1636503 L2.00000003,7.43640011 C2.00000003,4.43875007 4.43875007,2.00000003 7.43640011,2.00000003 L18.1636003,2.00000003 C21.1612503,2.00000003 23.6000004,4.43875007 23.6000004,7.43640011 L23.6000004,18.1636003 Z" id="Shape"></path>
                        <path d="M12.8000002,5.90000009 C8.99530013,5.90000009 5.90000009,8.99530013 5.90000009,12.8000002 C5.90000009,16.6047002 8.99530013,19.7000003 12.8000002,19.7000003 C16.6047002,19.7000003 19.7000003,16.6047002 19.7000003,12.8000002 C19.7000003,8.99530013 16.6047002,5.90000009 12.8000002,5.90000009 Z M12.8000002,17.7000003 C10.0981502,17.7000003 7.90000012,15.5018502 7.90000012,12.8000002 C7.90000012,10.0981502 10.0981502,7.90000012 12.8000002,7.90000012 C15.5018502,7.90000012 17.7000003,10.0981502 17.7000003,12.8000002 C17.7000003,15.5018502 15.5018502,17.7000003 12.8000002,17.7000003 Z" id="Shape"></path>
                        <circle id="Oval" cx="19.8000003" cy="5.80000009" r="1.00000001"></circle>
                    </g>
                </g>
            </g>
        </g>
    </g>
</svg>