<?xml version="1.0" encoding="UTF-8"?>
<svg width="136px" height="20px" viewBox="0 0 136 20" version="1.1" xmlns="http://www.w3.org/2000/svg" xmlns:xlink="http://www.w3.org/1999/xlink">
    <!-- Generator: Sketch 62 (91390) - https://sketch.com -->
    <title>SAMARA</title>
    <desc>Created with Sketch.</desc>
    <g id="Page-1" stroke="none" stroke-width="1" fill="none" fill-rule="evenodd">
        <g id="Test-1" transform="translate(-572.000000, -55.000000)" fill="#FFFFFF" fill-rule="nonzero" stroke="#FAFAFA" stroke-width="0.5">
            <g id="Hero---Slider">
                <path d="M580.218338,74 C581.95893,74 583.456351,73.5375 584.710602,72.6125 C585.964852,71.6875 586.591977,70.4166667 586.591977,68.8 C586.591977,67.5666667 586.161095,66.5916667 585.299331,65.875 C584.437568,65.1583333 583.187583,64.6 581.549379,64.2 L581.549379,64.2 L579.168863,63.575 C577.769564,63.225 576.724355,62.8041667 576.033238,62.3125 C575.34212,61.8208333 574.996562,61.0416667 574.996562,59.975 C574.996562,58.8416667 575.440242,57.9375 576.327603,57.2625 C577.214963,56.5875 578.341229,56.25 579.706399,56.25 C581.105699,56.25 582.342884,56.5458333 583.417956,57.1375 C584.493028,57.7291667 585.278001,58.5416667 585.772875,59.575 L585.772875,59.575 L586.003247,59.4 C585.474244,58.35 584.655142,57.5208333 583.545941,56.9125 C582.43674,56.3041667 581.14836,56 579.680802,56 C578.008469,56 576.596371,56.4458333 575.444508,57.3375 C574.292646,58.2291667 573.716714,59.3416667 573.716714,60.675 C573.716714,61.9416667 574.126266,62.9083333 574.945368,63.575 C575.76447,64.2416667 577.001655,64.7833333 578.656925,65.2 L578.656925,65.2 L581.165425,65.8 C582.462337,66.1 583.477682,66.5458333 584.211461,67.1375 C584.94524,67.7291667 585.31213,68.575 585.31213,69.675 C585.31213,70.8416667 584.855651,71.8125 583.942693,72.5875 C583.029736,73.3625 581.779752,73.75 580.192741,73.75 C578.588666,73.75 577.155237,73.3958333 575.892455,72.6875 C574.629672,71.9791667 573.750844,70.9916667 573.255969,69.725 L573.255969,69.725 L573,69.85 C573.511939,71.1333333 574.424897,72.1458333 575.738873,72.8875 C577.052849,73.6291667 578.546004,74 580.218338,74 Z M593.9383,73.75 L596.677173,67.6 L605.175358,67.6 L608.016619,73.75 L609.859599,73.75 L601.64298,56 L601.540592,56 L593.631137,73.75 L593.9383,73.75 Z M605.047373,67.325 L596.805158,67.325 L600.849475,58.25 L605.047373,67.325 Z M626.855969,74 L634.125501,56.725 L634.125501,73.75 L635.89169,73.75 L635.89169,56.25 L634.048711,56.25 L627.572684,71.65 L620.328749,56.25 L618.357784,56.25 L618.357784,73.75 L618.639351,73.75 L618.639351,56.725 L626.753582,74 L626.855969,74 Z M644.722636,73.75 L647.461509,67.6 L655.959694,67.6 L658.800955,73.75 L660.643935,73.75 L652.427316,56 L652.324928,56 L644.415473,73.75 L644.722636,73.75 Z M655.83171,67.325 L647.589494,67.325 L651.633811,58.25 L655.83171,67.325 Z M670.933906,73.75 L670.933906,65.7 L675.00382,65.7 C676.317797,65.7 677.307545,65.9375 677.973066,66.4125 C678.638586,66.8875 679.16759,67.675 679.560076,68.775 L679.560076,68.775 L680.583954,71.575 C680.908182,72.5083333 681.249475,73.2333333 681.607832,73.75 L681.607832,73.75 L683.655587,73.75 C683.109519,73.25 682.657307,72.4833333 682.298949,71.45 L682.298949,71.45 L681.249475,68.525 C680.601019,66.775 679.193187,65.8083333 677.025979,65.625 L677.025979,65.625 L677.025979,65.575 C677.828017,65.5583333 678.621522,65.4041667 679.406495,65.1125 C680.191468,64.8208333 680.89965,64.3083333 681.531041,63.575 C682.162432,62.8416667 682.478128,61.9583333 682.478128,60.925 C682.478128,59.3083333 681.833938,58.125 680.545559,57.375 C679.257179,56.625 677.606176,56.25 675.59255,56.25 L675.59255,56.25 L669.14212,56.25 L669.14212,73.75 L670.933906,73.75 Z M675.490162,65.425 L670.933906,65.425 L670.933906,56.525 L675.490162,56.525 C677.060108,56.525 678.288762,56.8833333 679.176122,57.6 C680.063483,58.3166667 680.507163,59.4333333 680.507163,60.95 C680.507163,63.9333333 678.83483,65.425 675.490162,65.425 L675.490162,65.425 Z M691.078701,73.75 L693.817574,67.6 L702.315759,67.6 L705.15702,73.75 L707,73.75 L698.783381,56 L698.680993,56 L690.771538,73.75 L691.078701,73.75 Z M702.187775,67.325 L693.945559,67.325 L697.989876,58.25 L702.187775,67.325 Z" id="SAMARA"></path>
            </g>
        </g>
    </g>
</svg>